<svg width="300" height="300" viewBox="0 0 300 300" fill="none" xmlns="http://www.w3.org/2000/svg">
<path d="M25 75C25 47.3858 47.3858 25 75 25H225C252.614 25 275 47.3858 275 75V150H25V75Z" fill="#252526"/>
<path d="M275 224C275 251.614 252.614 274 225 274H75C47.3857 274 25 251.614 25 224L25 149L275 149V224Z" fill="#1E1E1F"/>
<path d="M25 150C25 91.0744 25 61.6116 43.3059 43.3059C61.6116 25 91.0744 25 150 25C208.925 25 238.389 25 256.694 43.3059C275 61.6116 275 91.0744 275 150C275 208.925 275 238.389 256.694 256.694C238.389 275 208.925 275 150 275C91.0744 275 61.6116 275 43.3059 256.694C25 238.389 25 208.925 25 150Z" stroke="#FF0053" stroke-width="18"/>
<path d="M56.7335 199V109.4H86.9415V175.576H127.389V199H56.7335ZM135.733 199V109.4H160.565L196.405 167.896H183.349L218.165 109.4H242.997L243.253 199H215.733L215.477 150.872H219.829L196.021 190.936H182.709L157.877 150.872H163.253V199H135.733Z" fill="white"/>
</svg>
